<svg xmlns="http://www.w3.org/2000/svg" viewBox="0 0 112 112">
<defs>
<filter id="cut" x="-20%" y="-20%" width="140%" height="145%">
<feMorphology in="SourceAlpha" operator="dilate" radius="3" result="d"/>
<feFlood flood-color="#ffffff" result="fw"/><feComposite in="fw" in2="d" operator="in" result="w"/>
<feMerge result="m"><feMergeNode in="w"/><feMergeNode in="SourceGraphic"/></feMerge>
<feColorMatrix in="m" type="matrix" values="0 0 0 0 0  0 0 0 0 0  0 0 0 0 0  0 0 0 .45 0" result="k"/>
<feGaussianBlur in="k" stdDeviation="3" result="b"/>
<feOffset in="b" dy="3" result="s"/>
<feMerge><feMergeNode in="s"/><feMergeNode in="m"/></feMerge>
</filter>

</defs>
<g filter="url(#cut)">
<line x1="58" y1="8" x2="86" y2="46" stroke="#c9a24a" stroke-width="3.5" stroke-linecap="round"/>
<line x1="68" y1="6" x2="94" y2="42" stroke="#e8e0c8" stroke-width="3.5" stroke-linecap="round"/>
<path d="M20 44 q8 -8 16 0 t16 0 t16 0 t16 0" fill="none" stroke="#ffd27a" stroke-width="4.5" stroke-linecap="round"/>
<path d="M22 52 q8 -8 16 0 t16 0 t16 0" fill="none" stroke="#f3bf5a" stroke-width="4.5" stroke-linecap="round"/>
<ellipse cx="74" cy="48" rx="12" ry="9" fill="#fff" stroke="#c9b98a" stroke-width="1.2"/><circle cx="74" cy="48" r="5" fill="#ffb300"/>
<rect x="28" y="34" width="14" height="18" rx="2" fill="#10201a" transform="rotate(-8 35 43)"/>
<rect x="8" y="54" width="96" height="9" rx="4.5" fill="#f3ead0" stroke="#8a7a4a" stroke-width="1.2"/>
<path d="M12 62 Q12 100 56 100 Q100 100 100 62 Z" fill="#b71c1c" stroke="#5a0f0f" stroke-width="2"/>
<path d="M24 76 h64" stroke="#e6c877" stroke-width="2.2" stroke-dasharray="6 4"/>
</g>
</svg>
